<?xml version="1.0" encoding="UTF-8"?>
<svg id="Layer_1" data-name="Layer 1" xmlns="http://www.w3.org/2000/svg" xmlns:xlink="http://www.w3.org/1999/xlink" viewBox="0 0 424.1 464.57">
  <defs>
    <style>
      .cls-1 {
        letter-spacing: -.02em;
      }

      .cls-1, .cls-2, .cls-3 {
        isolation: isolate;
      }

      .cls-1, .cls-3 {
        font-family: WorkSans-Regular, 'Work Sans';
        font-size: 23.77px;
        font-variation-settings: 'wght' 400;
      }

      .cls-4 {
        fill: none;
      }

      .cls-4, .cls-5, .cls-6, .cls-7, .cls-8, .cls-9, .cls-10, .cls-11, .cls-12, .cls-13, .cls-14, .cls-15, .cls-16 {
        stroke: #000;
      }

      .cls-4, .cls-6, .cls-9, .cls-11, .cls-12, .cls-14, .cls-16 {
        stroke-miterlimit: 10;
      }

      .cls-5 {
        stroke-miterlimit: 10;
        stroke-width: 1px;
      }

      .cls-5, .cls-11 {
        fill: #9399b1;
      }

      .cls-6 {
        fill: #49b170;
      }

      .cls-7 {
        stroke-miterlimit: 10;
        stroke-width: 1px;
      }

      .cls-7, .cls-8, .cls-10, .cls-14, .cls-15 {
        fill: #ffb480;
      }

      .cls-8 {
        stroke-miterlimit: 10;
        stroke-width: 1px;
      }

      .cls-9, .cls-13 {
        fill: #f6b7be;
      }

      .cls-3 {
        letter-spacing: -.07em;
      }

      .cls-10 {
        stroke-miterlimit: 10;
        stroke-width: 1px;
      }

      .cls-12 {
        fill: #faef83;
      }

      .cls-13 {
        stroke-miterlimit: 10;
        stroke-width: 1px;
      }

      .cls-15 {
        stroke-miterlimit: 10;
        stroke-width: 1px;
      }

      .cls-16 {
        fill: #fff;
      }
    </style>
  </defs>
  <path class="cls-16" d="m86.1,300.09l-32.78-6.12,5.31-21.14,17.53-.1,10.16,27.1c.05.14-.07.29-.22.26h0Z"/>
  <ellipse class="cls-8" cx="142.29" cy="162.19" rx="17.7" ry="31.15" transform="translate(-25.15 298.27) rotate(-87.84)"/>
  <ellipse class="cls-10" cx="345.65" cy="272.73" rx="17.7" ry="31.15" transform="translate(-45.4 475.05) rotate(-65.63)"/>
  <circle class="cls-12" cx="316.07" cy="110.2" r="18.38"/>
  <circle class="cls-12" cx="254.87" cy="110.2" r="18.38"/>
  <circle class="cls-12" cx="295.84" cy="50.69" r="18.38"/>
  <circle class="cls-12" cx="314.21" cy="169.71" r="18.38"/>
  <circle class="cls-12" cx="381.82" cy="108.68" r="18.38"/>
  <circle class="cls-12" cx="381.82" cy="170.72" r="18.38"/>
  <circle class="cls-12" cx="359.23" cy="20.68" r="18.38"/>
  <line class="cls-4" x1="312.42" y1="92.19" x2="302.29" y2="67.88"/>
  <line class="cls-4" x1="297.69" y1="110.2" x2="273.25" y2="110.2"/>
  <line class="cls-4" x1="334.45" y1="110.2" x2="363.44" y2="108.68"/>
  <line class="cls-4" x1="381.82" y1="127.06" x2="381.82" y2="154.54"/>
  <line class="cls-4" x1="314.21" y1="128.57" x2="314.21" y2="151.33"/>
  <line class="cls-4" x1="326.15" y1="94.84" x2="352.08" y2="37.61"/>
  <rect class="cls-16" x="197.12" y="225.77" width="78.56" height="84.72"/>
  <line class="cls-4" x1="197.12" y1="290.42" x2="221.63" y2="261.93"/>
  <line class="cls-4" x1="270.77" y1="310.48" x2="221.21" y2="261.8"/>
  <line class="cls-4" x1="242.58" y1="282.79" x2="261.08" y2="256.87"/>
  <line class="cls-4" x1="275.87" y1="271.38" x2="260.38" y2="256.84"/>
  <circle class="cls-12" cx="245.84" cy="244.54" r="7.48"/>
  <rect class="cls-6" x="101.12" y="258.04" width="61.7" height="80.93"/>
  <path class="cls-6" d="m103.98,275.25s3.11-10.14,10.12-4.43c7.33,5.98,2.48,2.42,9.1-.8,6.24-3.03,9.06,1.48,9.06,1.48l3.67,2.44s3.33-10.14,10.92-2.7,6.03,4.13,6.03,4.13l1.14-3.41c2.54-4.05,7.51-2.86,5.9,2.49l.08,2.49"/>
  <path class="cls-6" d="m103.98,298.47s3.11-10.14,10.12-4.43c7.33,5.98,2.48,2.42,9.1-.8,6.24-3.03,9.06,1.48,9.06,1.48l3.67,2.44s3.33-10.14,10.92-2.7,6.03,4.13,6.03,4.13l1.14-3.41c2.54-4.05,7.51-2.86,5.9,2.49l.08,2.49"/>
  <path class="cls-6" d="m103.85,319.04s3.11-10.14,10.12-4.43c7.33,5.98,2.48,2.42,9.1-.8,6.24-3.03,9.06,1.48,9.06,1.48l3.67,2.44s3.33-10.14,10.92-2.7,6.03,4.13,6.03,4.13l1.14-3.41c2.54-4.05,7.51-2.86,5.9,2.49l.08,2.49"/>
  <rect class="cls-13" x="288.17" y="266.95" width="80.93" height="61.7" transform="translate(-94.73 429.89) rotate(-59.51)"/>
  <path class="cls-9" d="m316.33,263.55s7.83-7.16,10.96,1.32c3.28,8.88.91,3.35,8.25,3.93,6.92.55,7.06,5.87,7.06,5.87l1.92,3.97s8.01-7.04,10.78,3.21c2.76,10.26,3.1,6.62,3.1,6.62l2.71-2.36c4.24-2.2,7.92,1.34,3.82,5.14l-1.19,2.19"/>
  <path class="cls-9" d="m304.55,283.56s7.83-7.16,10.96,1.32c3.28,8.88.91,3.35,8.25,3.93,6.92.55,7.06,5.87,7.06,5.87l1.92,3.97s8.01-7.04,10.78,3.21c2.76,10.26,3.1,6.62,3.1,6.62l2.71-2.36c4.24-2.2,7.92,1.34,3.82,5.14l-1.19,2.19"/>
  <path class="cls-9" d="m294,301.22s7.83-7.16,10.96,1.32c3.28,8.88.91,3.35,8.25,3.93,6.92.55,7.06,5.87,7.06,5.87l1.92,3.97s8.01-7.04,10.78,3.21c2.76,10.26,3.1,6.62,3.1,6.62l2.71-2.36c4.24-2.2,7.92,1.34,3.82,5.14l-1.19,2.19"/>
  <rect class="cls-5" x="106.79" y="69.51" width="118.11" height="89.69" transform="translate(21.68 255.05) rotate(-78.89)"/>
  <path class="cls-11" d="m132.48,73.19s7.29-13.65,15.67-3.5,2.86,4.16,13.21,1.4c9.75-2.6,12.51,4.65,12.51,4.65l4.54,4.53s7.6-13.58,16.33-.81,7.44,7.6,7.44,7.6l2.58-4.57c4.76-5.08,11.52-2,7.72,5.21l-.58,3.58"/>
  <path class="cls-11" d="m125.95,106.45s7.29-13.65,15.67-3.5,2.86,4.16,13.21,1.4c9.75-2.6,12.51,4.65,12.51,4.65l4.54,4.53s7.6-13.58,16.33-.81c8.73,12.78,7.44,7.6,7.44,7.6l2.58-4.57c4.76-5.08,11.52-2,7.72,5.21l-.58,3.58"/>
  <path class="cls-11" d="m119.97,135.86s7.29-13.65,15.67-3.5c8.78,10.62,2.86,4.16,13.21,1.4,9.75-2.6,12.51,4.65,12.51,4.65l4.54,4.53s7.6-13.58,16.33-.81c8.73,12.78,7.44,7.6,7.44,7.6l2.58-4.57c4.76-5.08,11.52-2,7.72,5.21l-.58,3.58"/>
  <ellipse class="cls-15" cx="337.86" cy="331.62" rx="11.44" ry="13.09" transform="translate(-50.48 60.85) rotate(-9.58)"/>
  <path class="cls-14" d="m335.28,344.21l24.35,12.8,27.15,106.98,36.72-7.35-31.17-139.13-.48-.56-15.93-36.21-21.03,32.95,8.76,10.06c.5.57.63,1.38.33,2.07l-.8,1.89c-.26,1.24-1.61,1.92-2.76,1.39l-14.98-6.88"/>
  <ellipse class="cls-7" cx="127.25" cy="104.72" rx="11.44" ry="13.09" transform="translate(-36.08 82.72) rotate(-31.78)"/>
  <path class="cls-14" d="m124.88,92.1l-27.38-2.64L31.92.68.7,21.36l81.44,117.03.66.34,28.44,27.5,7.02-38.46-11.92-6c-.68-.34-1.1-1.04-1.09-1.8l.03-2.05c-.22-1.25.77-2.38,2.03-2.33l16.47.7"/>
  <circle class="cls-16" cx="54.92" cy="272.73" r="21.24"/>
  <g class="cls-2">
    <text class="cls-3" transform="translate(46.96 280.67)"><tspan x="0" y="0">A</tspan></text>
  </g>
  <path class="cls-16" d="m232.44,215.64l32.78-6.12-5.31-21.14-17.53-.1-10.16,27.1c-.05.14.07.29.22.26Z"/>
  <circle class="cls-16" cx="263.62" cy="188.27" r="21.24" transform="translate(35.56 418.33) rotate(-80.78)"/>
  <g class="cls-2">
    <text class="cls-1" transform="translate(255.66 196.21)"><tspan x="0" y="0">K</tspan></text>
  </g>
  <image width="360" height="360" transform="translate(180.16 348.32) scale(.29)" xlink:href="../../../../../../Downloads/png-transparent-figma-logo-brand-logos-brands-in-colors-icon-thumbnail-removebg-preview.png"/>
</svg>