<?xml version="1.0" encoding="utf-8"?>
<!-- Generator: Adobe Illustrator 27.5.0, SVG Export Plug-In . SVG Version: 6.00 Build 0)  -->
<svg version="1.1" id="Layer_1" xmlns="http://www.w3.org/2000/svg" xmlns:xlink="http://www.w3.org/1999/xlink" x="0px" y="0px"
	 viewBox="0 0 424.1 464.6" style="enable-background:new 0 0 424.1 464.6;" xml:space="preserve">
<style type="text/css">
	.st0{fill:#FFFFFF;stroke:#000000;stroke-miterlimit:10;}
	.st1{fill:#FFB480;stroke:#000000;stroke-miterlimit:10;}
	.st2{fill:#FAEF83;stroke:#000000;stroke-miterlimit:10;}
	.st3{fill:none;stroke:#000000;stroke-miterlimit:10;}
	.st4{fill:#49B170;stroke:#000000;stroke-miterlimit:10;}
	.st5{fill:#F6B7BE;stroke:#000000;stroke-miterlimit:10;}
	.st6{fill:#9399B1;stroke:#000000;stroke-miterlimit:10;}
	.st7{enable-background:new    ;}
	.st8{fill:#0ACF83;}
	.st9{fill:#A259FF;}
	.st10{fill:#F24E1E;}
	.st11{fill:#FF7262;}
	.st12{fill:#1ABCFE;}
</style>
<path class="st0" d="M86.1,300.1L53.3,294l5.3-21.1l17.5-0.1l10.2,27.1C86.4,300,86.3,300.1,86.1,300.1L86.1,300.1L86.1,300.1z"/>
<ellipse transform="matrix(3.769025e-02 -0.9993 0.9993 3.769025e-02 -25.154 298.2675)" class="st1" cx="142.3" cy="162.2" rx="17.7" ry="31.1"/>
<ellipse transform="matrix(0.4126 -0.9109 0.9109 0.4126 -45.4049 475.0526)" class="st1" cx="345.7" cy="272.7" rx="17.7" ry="31.1"/>
<circle class="st2" cx="316.1" cy="110.2" r="18.4"/>
<circle class="st2" cx="254.9" cy="110.2" r="18.4"/>
<circle class="st2" cx="295.8" cy="50.7" r="18.4"/>
<circle class="st2" cx="314.2" cy="169.7" r="18.4"/>
<circle class="st2" cx="381.8" cy="108.7" r="18.4"/>
<circle class="st2" cx="381.8" cy="170.7" r="18.4"/>
<circle class="st2" cx="359.2" cy="20.7" r="18.4"/>
<line class="st3" x1="312.4" y1="92.2" x2="302.3" y2="67.9"/>
<line class="st3" x1="297.7" y1="110.2" x2="273.2" y2="110.2"/>
<line class="st3" x1="334.5" y1="110.2" x2="363.4" y2="108.7"/>
<line class="st3" x1="381.8" y1="127.1" x2="381.8" y2="154.5"/>
<line class="st3" x1="314.2" y1="128.6" x2="314.2" y2="151.3"/>
<line class="st3" x1="326.1" y1="94.8" x2="352.1" y2="37.6"/>
<rect x="197.1" y="225.8" class="st0" width="78.6" height="84.7"/>
<line class="st3" x1="197.1" y1="290.4" x2="221.6" y2="261.9"/>
<line class="st3" x1="270.8" y1="310.5" x2="221.2" y2="261.8"/>
<line class="st3" x1="242.6" y1="282.8" x2="261.1" y2="256.9"/>
<line class="st3" x1="275.9" y1="271.4" x2="260.4" y2="256.8"/>
<circle class="st2" cx="245.8" cy="244.5" r="7.5"/>
<rect x="101.1" y="258" class="st4" width="61.7" height="80.9"/>
<path class="st4" d="M104,275.2c0,0,3.1-10.1,10.1-4.4c7.3,6,2.5,2.4,9.1-0.8c6.2-3,9.1,1.5,9.1,1.5l3.7,2.4c0,0,3.3-10.1,10.9-2.7
	s6,4.1,6,4.1l1.1-3.4c2.5-4,7.5-2.9,5.9,2.5l0.1,2.5"/>
<path class="st4" d="M104,298.5c0,0,3.1-10.1,10.1-4.4c7.3,6,2.5,2.4,9.1-0.8c6.2-3,9.1,1.5,9.1,1.5l3.7,2.4c0,0,3.3-10.1,10.9-2.7
	s6,4.1,6,4.1l1.1-3.4c2.5-4,7.5-2.9,5.9,2.5l0.1,2.5"/>
<path class="st4" d="M103.8,319c0,0,3.1-10.1,10.1-4.4c7.3,6,2.5,2.4,9.1-0.8c6.2-3,9.1,1.5,9.1,1.5l3.7,2.4c0,0,3.3-10.1,10.9-2.7
	s6,4.1,6,4.1l1.1-3.4c2.5-4,7.5-2.9,5.9,2.5l0.1,2.5"/>
<rect x="288.2" y="266.9" transform="matrix(0.5074 -0.8617 0.8617 0.5074 -94.7296 429.8902)" class="st5" width="80.9" height="61.7"/>
<path class="st5" d="M316.3,263.5c0,0,7.8-7.2,11,1.3c3.3,8.9,0.9,3.4,8.2,3.9c6.9,0.5,7.1,5.9,7.1,5.9l1.9,4c0,0,8-7,10.8,3.2
	c2.8,10.3,3.1,6.6,3.1,6.6l2.7-2.4c4.2-2.2,7.9,1.3,3.8,5.1l-1.2,2.2"/>
<path class="st5" d="M304.5,283.6c0,0,7.8-7.2,11,1.3c3.3,8.9,0.9,3.4,8.2,3.9c6.9,0.5,7.1,5.9,7.1,5.9l1.9,4c0,0,8-7,10.8,3.2
	c2.8,10.3,3.1,6.6,3.1,6.6l2.7-2.4c4.2-2.2,7.9,1.3,3.8,5.1l-1.2,2.2"/>
<path class="st5" d="M294,301.2c0,0,7.8-7.2,11,1.3c3.3,8.9,0.9,3.4,8.2,3.9c6.9,0.5,7.1,5.9,7.1,5.9l1.9,4c0,0,8-7,10.8,3.2
	c2.8,10.3,3.1,6.6,3.1,6.6l2.7-2.4c4.2-2.2,7.9,1.3,3.8,5.1l-1.2,2.2"/>
<rect x="106.8" y="69.5" transform="matrix(0.1927 -0.9813 0.9813 0.1927 21.6856 255.0553)" class="st6" width="118.1" height="89.7"/>
<path class="st6" d="M132.5,73.2c0,0,7.3-13.7,15.7-3.5s2.9,4.2,13.2,1.4c9.8-2.6,12.5,4.7,12.5,4.7l4.5,4.5c0,0,7.6-13.6,16.3-0.8
	s7.4,7.6,7.4,7.6l2.6-4.6c4.8-5.1,11.5-2,7.7,5.2l-0.6,3.6"/>
<path class="st6" d="M125.9,106.4c0,0,7.3-13.7,15.7-3.5s2.9,4.2,13.2,1.4c9.8-2.6,12.5,4.7,12.5,4.7l4.5,4.5c0,0,7.6-13.6,16.3-0.8
	c8.7,12.8,7.4,7.6,7.4,7.6l2.6-4.6c4.8-5.1,11.5-2,7.7,5.2l-0.6,3.6"/>
<path class="st6" d="M120,135.9c0,0,7.3-13.7,15.7-3.5c8.8,10.6,2.9,4.2,13.2,1.4c9.8-2.6,12.5,4.6,12.5,4.6l4.5,4.5
	c0,0,7.6-13.6,16.3-0.8c8.7,12.8,7.4,7.6,7.4,7.6l2.6-4.6c4.8-5.1,11.5-2,7.7,5.2l-0.6,3.6"/>
<ellipse transform="matrix(0.9861 -0.1664 0.1664 0.9861 -50.4775 60.8525)" class="st1" cx="337.9" cy="331.6" rx="11.4" ry="13.1"/>
<path class="st1" d="M335.3,344.2l24.4,12.8l27.1,107l36.7-7.4l-31.2-139.1l-0.5-0.6l-15.9-36.2l-21,33l8.8,10.1
	c0.5,0.6,0.6,1.4,0.3,2.1l-0.8,1.9c-0.3,1.2-1.6,1.9-2.8,1.4l-15-6.9"/>
<ellipse transform="matrix(0.8501 -0.5267 0.5267 0.8501 -36.0763 82.7146)" class="st1" cx="127.2" cy="104.7" rx="11.4" ry="13.1"/>
<path class="st1" d="M124.9,92.1l-27.4-2.6L31.9,0.7L0.7,21.4l81.4,117l0.7,0.3l28.4,27.5l7-38.5l-11.9-6c-0.7-0.3-1.1-1-1.1-1.8
	l0-2.1c-0.2-1.2,0.8-2.4,2-2.3l16.5,0.7"/>
<circle class="st0" cx="54.9" cy="272.7" r="21.2"/>
<g>
	<g>
		<g class="st7">
			<path d="M62,280.7h-2l-1.7-4.3h-7.1l-1.7,4.3h-2l6.1-15.7h2.3L62,280.7z M51.9,274.5h5.7l-2.9-7.7L51.9,274.5z"/>
		</g>
	</g>
</g>
<path class="st0" d="M232.4,215.6l32.8-6.1l-5.3-21.1l-17.5-0.1l-10.2,27.1C232.2,215.5,232.3,215.7,232.4,215.6z"/>
<ellipse transform="matrix(0.3163 -0.9487 0.9487 0.3163 1.6392 378.8376)" class="st0" cx="263.6" cy="188.3" rx="21.2" ry="21.2"/>
<g>
	<g>
		<g class="st7">
			<path d="M260.1,180.5v15.7h-1.9v-15.7H260.1z M270.5,180.5l-6.8,7l-0.3,0.3l-4.2,4.3v-2.6l8.8-9.1H270.5z M263.9,186.3l6.7,9.9
				h-2.3l-6-8.8L263.9,186.3z"/>
		</g>
	</g>
</g>
<g>
	<path id="path0_fill_00000021812261376766106150000000569596119783585935_" class="st8" d="M211.6,455.4c11.3,0,20.6-9.2,20.6-20.6
		v-20.6h-20.6c-11.3,0-20.6,9.2-20.6,20.6S200.3,455.4,211.6,455.4z"/>
	<path id="path1_fill_00000031183611649867356020000018236664237185211054_" class="st9" d="M191.1,393.7c0-11.3,9.2-20.6,20.6-20.6
		h20.6v41.1h-20.6C200.3,414.3,191.1,405.1,191.1,393.7z"/>
	<path id="path1_fill_00000039817822306805347890000010413504397492657335_" class="st10" d="M191.1,352.6
		c0-11.3,9.2-20.6,20.6-20.6h20.6v41.1h-20.6C200.3,373.2,191.1,363.9,191.1,352.6z"/>
	<path id="path2_fill_00000136389461268665431140000016490771875806754440_" class="st11" d="M232.2,332h20.6
		c11.3,0,20.6,9.2,20.6,20.6s-9.2,20.6-20.6,20.6h-20.6V332z"/>
	<path id="path3_fill_00000159441535218271335130000017185797140250273455_" class="st12" d="M273.3,393.7
		c0,11.3-9.2,20.6-20.6,20.6c-11.3,0-20.6-9.2-20.6-20.6s9.2-20.6,20.6-20.6C264.1,373.2,273.3,382.4,273.3,393.7z"/>
</g>
</svg>
