<?xml version="1.0" encoding="utf-8"?>
<!-- Generator: Adobe Illustrator 27.5.0, SVG Export Plug-In . SVG Version: 6.00 Build 0)  -->
<svg version="1.1" id="Layer_1" xmlns="http://www.w3.org/2000/svg" xmlns:xlink="http://www.w3.org/1999/xlink" x="0px" y="0px"
	 viewBox="0 0 659.3 424.6" style="enable-background:new 0 0 659.3 424.6;" xml:space="preserve">
<style type="text/css">
	.st0{fill:#FFFFFF;stroke:#1D1D1B;stroke-miterlimit:10;}
	.st1{fill:#1D1D1B;}
	.st2{fill:none;stroke:#1D1D1B;stroke-miterlimit:10;}
	.st3{fill:#808080;}
	.st4{fill:none;stroke:#808080;stroke-miterlimit:10;}
	.st5{fill:#808080;stroke:#BFBFBF;stroke-miterlimit:10;}
	.st6{fill:#808080;stroke:#808080;stroke-miterlimit:10;}
	.st7{fill:#FF7E1B;}
	.st8{fill:#41322A;}
</style>
<rect x="87.9" y="104.7" class="st0" width="450.4" height="222.9"/>
<rect x="204.7" y="391.5" class="st1" width="216.7" height="33.1"/>
<rect x="298" y="326" class="st1" width="30.2" height="65.5"/>
<polygon class="st2" points="245.5,327.6 221.9,290.7 369,160.4 501.2,327.6 "/>
<polyline class="st2" points="245.5,327.6 169.9,209 87.9,276.1 "/>
<polygon class="st3" points="55.4,64.5 56.8,40.6 67.8,23.6 110.8,22.8 "/>
<polygon class="st3" points="58.2,69 81.9,72.3 100.7,64.8 109.8,22.8 "/>
<polygon class="st3" points="100.7,64.8 67.8,23.6 103.7,11.8 121.3,31.8 "/>
<path class="st3" d="M108.8,8.6l9.1-8.2c0.6-0.6,1.6-0.5,2.1,0.1l14.4,16c0.6,0.6,0.5,1.6-0.1,2.1l-9.1,8.2
	c-0.6,0.6-1.6,0.5-2.1-0.1l-14.4-16C108.2,10.1,108.2,9.1,108.8,8.6z"/>
<path class="st4" d="M23.3,19.1l12.5,0c0.2,0,2.9,1.8,3,1.9l1.8,3.5c0.1,0.1,1.4,3,1.4,3.1l0.5,6c0,0.1-2.2,6.6-2.3,6.6l-3.7,6.5
	L36.2,52c0,0.1,0.3,5,0.3,5.1l3.2,4.7c0.1,0.2,0.3,0.3,0.5,0.3l15.2,1.3"/>
<rect x="587.7" y="194.6" class="st5" width="71.1" height="57.6"/>
<path class="st4" d="M17.2,242.5L1.6,265.6c-0.3,0.5-1.1,0.2-1-0.4l7.2-55.6c0.1-0.5,0.6-0.7,1-0.3L46,246.7c0.4,0.4,0,1.1-0.5,1
	L17.2,242.5L17.2,242.5L17.2,242.5z"/>
<polygon class="st4" points="553.8,65.5 511.9,72.3 547.7,35.8 569.1,49.3 "/>
<rect x="554.3" y="17.3" transform="matrix(0.5405 -0.8413 0.8413 0.5405 229.7283 490.2278)" class="st6" width="18.8" height="35"/>
<path class="st4" d="M300.5,60c-0.3-1.4-4.5-21.8,10-36.2c11.6-11.6,30.4-14.3,46.1-6.3"/>
<circle class="st7" cx="485.2" cy="154" r="32"/>
<g>
	<g>
		<g transform="translate(0.000000,237.000000) scale(0.100000,-0.100000)">
			<path class="st8" d="M4783.8,1208.2c-152.6-29.3-274-142.6-313.4-293c-11.5-42.7-13.7-122.5-5.6-167.5
				c11.9-61.6,36.8-117.7,75.4-168.2c126.2-166,359.4-205,533.6-88.7c67.9,45.3,123.3,115.8,151.1,192
				c79.5,218-43.4,456-267.7,517.6C4913.4,1212.6,4827.3,1216.3,4783.8,1208.2z M5040.8,1003.6c12.3-11.9,12.3-31.2,0.4-45.3
				c-7.1-8.2-11.9-10.4-24.5-10.4s-17.5,2.2-24.9,11.1c-7.8,8.9-8.9,13.4-7.4,25.6c2.6,18.9,13.4,28.2,33,28.2
				C5027.8,1012.9,5034.5,1010.3,5040.8,1003.6z M4828.8,1002.5c2.2-4.1,106.2-357.2,106.2-361.6c0-1.9-13.7-3-30.1-2.2l-30.4,1.1
				l-13.7,50.1l-13.7,50.1l-53.8,1.1c-49,0.7-54.2,0.4-55.7-5.6c-1.1-3.7-7.4-27.1-14.1-52l-12.3-45.7h-27.1
				c-15.2,0-27.5,1.1-27.5,2.6s21.9,78.7,48.3,171.9c26.7,93.2,48.3,173.8,48.3,179c0,4.8,1.1,10.4,2.6,11.5
				C4758.9,1006.6,4826.5,1006.2,4828.8,1002.5z M5046.3,773.4V637.9h-29.7h-29.7v132.9c0,73.1,1.1,134.4,2.6,135.5
				c1.1,1.5,14.5,2.6,29.7,2.6h27.1V773.4z"/>
			<path class="st8" d="M4784.6,924.9c-3.3-16-11.9-50.9-18.9-77.6c-7.1-27.1-12.6-49.8-12.6-51.2c0-1.1,17.5-2.2,39-2.2
				c32.3,0,39,1.1,39,5.6c0,5.6-37.1,151.1-39,153.3C4791.6,953.5,4788.3,940.8,4784.6,924.9z"/>
		</g>
	</g>
</g>
</svg>
