<?xml version="1.0" encoding="utf-8"?>
<!-- Generator: Adobe Illustrator 27.5.0, SVG Export Plug-In . SVG Version: 6.00 Build 0)  -->
<svg version="1.1" id="Layer_1" xmlns="http://www.w3.org/2000/svg" xmlns:xlink="http://www.w3.org/1999/xlink" x="0px" y="0px"
	 viewBox="0 0 439.1 546.4" style="enable-background:new 0 0 439.1 546.4;" xml:space="preserve">
<style type="text/css">
	.st0{fill:#D8D8DB;stroke:#000000;stroke-miterlimit:10;}
	.st1{fill:#FFFFFF;stroke:#000000;stroke-miterlimit:10;}
	.st2{fill:none;stroke:#000000;stroke-miterlimit:10;}
	.st3{stroke:#000000;stroke-miterlimit:10;}
	.st4{fill:#EB43A3;}
	.st5{fill:#412534;}
</style>
<rect x="35.6" y="25.3" transform="matrix(0.9888 -0.1495 0.1495 0.9888 -38.3805 35.9021)" class="st0" width="368" height="495.8"/>
<rect x="39" y="28" class="st0" width="368" height="495.8"/>
<rect x="99.8" y="62.5" class="st1" width="241.7" height="170.9"/>
<line class="st2" x1="99.8" y1="192.9" x2="175.2" y2="135.4"/>
<line class="st2" x1="326.4" y1="233.3" x2="173.9" y2="135.2"/>
<line class="st2" x1="239.7" y1="177.5" x2="296.6" y2="125.2"/>
<line class="st2" x1="342.1" y1="154.5" x2="294.4" y2="125.2"/>
<rect x="99.8" y="253.8" class="st3" width="46" height="22.1"/>
<rect x="170.5" y="253.8" class="st3" width="171.6" height="22.1"/>
<rect x="99.8" y="304.4" class="st3" width="242.3" height="22.1"/>
<rect x="99.8" y="373.7" class="st3" width="239.5" height="22.1"/>
<rect x="99.8" y="449.3" class="st3" width="242.3" height="22.1"/>
<g>
	<circle class="st4" cx="268.1" cy="101.1" r="19.8"/>
	<g>
		<g transform="translate(0.000000,237.000000) scale(0.100000,-0.100000)">
			<path class="st5" d="M2631.4,1452.7c-2.4-11.4-8.5-36.2-13.5-55.3c-5-19.3-9-35.4-9-36.5c0-0.8,12.4-1.6,27.8-1.6
				c23,0,27.8,0.8,27.8,4c0,4-26.4,107.6-27.8,109.2C2636.4,1473.1,2634,1464.1,2631.4,1452.7z"/>
			<path class="st5" d="M2630.9,1654.5c-108.7-20.9-195.2-101.6-223.2-208.7c-8.2-30.4-9.8-87.3-4-119.3
				c8.5-43.9,26.2-83.8,53.7-119.8c89.9-118.2,256-146,380.1-63.2c48.4,32.3,87.8,82.5,107.6,136.7
				c56.6,155.3-30.9,324.8-190.7,368.7C2723.2,1657.7,2661.8,1660.3,2630.9,1654.5z M2813.9,1508.8c8.7-8.5,8.7-22.2,0.3-32.3
				c-5-5.8-8.5-7.4-17.5-7.4s-12.4,1.6-17.7,7.9c-5.6,6.3-6.3,9.5-5.3,18.2c1.9,13.5,9.5,20.1,23.5,20.1
				C2804.6,1515.4,2809.4,1513.5,2813.9,1508.8z M2662.9,1508c1.6-2.9,75.6-254.4,75.6-257.6c0-1.3-9.8-2.1-21.4-1.6l-21.7,0.8
				l-9.8,35.7l-9.8,35.7l-38.4,0.8c-34.9,0.5-38.6,0.3-39.7-4c-0.8-2.6-5.3-19.3-10.1-37l-8.7-32.5h-19.3c-10.8,0-19.6,0.8-19.6,1.9
				s15.6,56.1,34.4,122.5c19,66.4,34.4,123.8,34.4,127.5c0,3.4,0.8,7.4,1.9,8.2C2613.1,1510.9,2661.3,1510.6,2662.9,1508z
				 M2817.8,1344.8v-96.5h-21.2h-21.2v94.7c0,52.1,0.8,95.7,1.9,96.5c0.8,1.1,10.3,1.9,21.2,1.9h19.3V1344.8z"/>
		</g>
	</g>
</g>
</svg>
