<?xml version="1.0" encoding="utf-8"?>
<!-- Generator: Adobe Illustrator 27.5.0, SVG Export Plug-In . SVG Version: 6.00 Build 0)  -->
<svg version="1.1" id="Layer_1" xmlns="http://www.w3.org/2000/svg" xmlns:xlink="http://www.w3.org/1999/xlink" x="0px" y="0px"
	 viewBox="0 0 325.6 385.1" style="enable-background:new 0 0 325.6 385.1;" xml:space="preserve">
<style type="text/css">
	.st0{stroke:#000000;stroke-miterlimit:10;}
	.st1{fill:#FFFFFF;stroke:#000000;stroke-miterlimit:10;}
	.st2{fill:#FFFFFF;stroke:#656160;stroke-miterlimit:10;}
	.st3{fill:#37C5FF;}
	.st4{fill:none;stroke:#000000;stroke-miterlimit:10;}
	.st5{fill:#FFFFFF;}
	.st6{fill:#FAEF83;stroke:#000000;stroke-miterlimit:10;}
	.st7{fill:#FFB480;stroke:#000000;stroke-miterlimit:10;}
	.st8{fill:#74CCBD;stroke:#000000;stroke-miterlimit:10;}
	.st9{fill:#28253A;}
</style>
<g id="kamera">
	<path class="st0" d="M8.1,177.4h190.6c4.2,0,7.6-3.4,7.6-7.6v-65.2H0.5v65.2C0.5,174.1,3.9,177.4,8.1,177.4z"/>
	<path class="st1" d="M0.5,26.9v76.8h205.8V26.9c0-4.2-3.4-7.6-7.6-7.6H8.1C3.9,19.3,0.5,22.7,0.5,26.9z"/>
</g>
<g id="cirkel">
	<circle class="st2" cx="103.4" cy="104.7" r="37.2"/>
	<circle class="st3" cx="103.4" cy="104.7" r="30.4"/>
</g>
<g id="refleks">
	<path class="st1" d="M10.7,29.5h58.1c0.6,0,1,0.4,1,1v22c0,0.6-0.4,1-1,1H10.7c-0.6,0-1-0.4-1-1v-22C9.7,29.9,10.1,29.5,10.7,29.5z
		"/>
	<line class="st4" x1="15.9" y1="29.2" x2="15.9" y2="53.2"/>
	<line class="st4" x1="22.7" y1="29.5" x2="22.7" y2="53.5"/>
	<line class="st4" x1="28.7" y1="29" x2="28.7" y2="53"/>
	<line class="st4" x1="35.5" y1="29.3" x2="35.5" y2="53.3"/>
	<line class="st4" x1="42.2" y1="29.7" x2="42.2" y2="53.7"/>
	<line class="st4" x1="49.5" y1="29.9" x2="49.5" y2="53.9"/>
	<line class="st4" x1="56.9" y1="29.5" x2="56.9" y2="53.5"/>
	<line class="st4" x1="63.7" y1="29.7" x2="63.7" y2="53.7"/>
</g>
<path class="st0" d="M149.4,0.5h22.7c1.1,0,2,0.9,2,2v16.8h-26.7V2.5C147.4,1.4,148.3,0.5,149.4,0.5z"/>
<path class="st5" d="M11.7,150.2H196c1.1,0,2,0.9,2,2v8.6c0,1.1-0.9,2-2,2H11.7c-1.1,0-2-0.9-2-2v-8.6
	C9.7,151.1,10.6,150.2,11.7,150.2z"/>
<rect x="53.7" y="148.3" class="st1" width="100.3" height="108.2"/>
<line class="st4" x1="53.7" y1="230.8" x2="85" y2="194.5"/>
<line class="st4" x1="147.8" y1="256.5" x2="84.5" y2="194.3"/>
<rect x="84.4" y="193" transform="matrix(0.7071 -0.7071 0.7071 0.7071 -112.1714 116.8584)" width="1.1" height="1.6"/>
<line class="st4" x1="111.8" y1="221.1" x2="135.4" y2="188"/>
<line class="st4" x1="154.3" y1="206.5" x2="134.5" y2="188"/>
<rect x="134.8" y="186.7" transform="matrix(0.7071 -0.7071 0.7071 0.7071 -93.017 150.5429)" width="0.9" height="1.6"/>
<circle class="st6" cx="115.9" cy="172.3" r="9.6"/>
<g>
	
		<ellipse transform="matrix(0.9258 -0.378 0.378 0.9258 -40.9987 107.5747)" class="st7" cx="253.5" cy="158.2" rx="39.8" ry="22.6"/>
	<path class="st0" d="M169.3,212.3l15.6-21.6c0.1-0.2,0.4-0.1,0.4,0.1l2.6,15.7l3.5,14.6c0,0.2-0.3,1.4-0.5,1.3l-21.5-9.8
		C169.3,212.6,169.2,212.4,169.3,212.3L169.3,212.3L169.3,212.3z"/>
	<polyline class="st8" points="302,172.4 190.9,222.4 184.9,190.6 285.9,139.8 	"/>
	
		<rect x="292.4" y="132.2" transform="matrix(0.893 -0.4501 0.4501 0.893 -35.0008 153.5056)" class="st1" width="25.7" height="36.4"/>
	<line class="st4" x1="201.9" y1="182.1" x2="209.1" y2="214.2"/>
	<polyline class="st8" points="295.2,160.9 207.3,204.1 204,191.6 289.1,148.9 	"/>
	
		<ellipse transform="matrix(0.1355 -0.9908 0.9908 0.1355 19.7243 421.7984)" class="st7" cx="251.6" cy="199.6" rx="16.7" ry="14.6"/>
	<path class="st7" d="M243.7,214l24.8,24.9l-7.7,140.7l47.5,5l15-181.4l-0.4-0.9l-17.1-31.9l-26.7,13.8l6.8,15.6
		c0.4,0.9,0.2,1.9-0.4,2.6l-1.7,2c-0.8,1.4-2.7,1.7-3.9,0.6l-15.6-14.1"/>
</g>
<g>
	<g transform="translate(0.000000,241.000000) scale(0.100000,-0.100000)">
		<path class="st9" d="M965.2,1743.1c-179.9-34.1-311.7-183.2-320.8-363.4c-12.1-237.5,188-431,423.6-409
			c92.5,8.4,165.2,41.5,232.4,105c50.3,47.7,78.9,90.7,100.6,151.6c44.8,124.1,23.9,259.9-56.5,366.4
			c-52.9,70.5-129.2,121.1-216.6,143.5C1086.4,1747.9,1006.4,1750.8,965.2,1743.1z M981.8,1506.3c33-9.2,54.3-43,54.3-86.3
			c0-19.5-2.2-30.1-8.8-44.1c-17.3-36.3-35.6-45.5-99.9-48.5l-45.5-2.2v-54.7v-54.3h-25.7h-25.7v146.8V1510h69
			C937.3,1510,974.4,1508.1,981.8,1506.3z M1189.5,1427c7.3-2.9,18-9.9,23.5-15.1c9.9-9.2,20.2-29.4,16.9-32.3
			c-1.1-1.1-11.4-3.7-22.8-6.2c-20.6-4-21.3-4-29,5.5c-4.4,5.5-12.8,11.4-18.7,13.6c-19.1,7-49.9-3.7-49.9-16.9
			c0-8.1,14.3-15.1,51.4-25.3c62.4-17.3,79.7-34.1,76.4-73.8c-2.2-24.2-15.8-43.3-39.6-55.4c-23.5-12.1-71.2-11.7-97.6,0.4
			c-19.1,8.8-34.5,25-41.5,43.7c-4.8,11.7-4.4,12.1,26.4,16.5c20.6,3.3,21.7,2.9,24.6-4.8c6.6-17.3,18.4-23.9,41.1-23.9
			c23.1,0,36,7.7,36,22c0,9.9-11.4,16.2-45.2,25.3c-15.4,4.4-35.6,11-44.8,15.4c-46.6,22-44.8,88.5,3.3,110.1
			C1119.4,1434.7,1169.7,1435.5,1189.5,1427z"/>
		<path class="st9" d="M881.9,1419.7v-42.6l38.9,1.5c38.5,1.1,38.9,1.1,49.6,13.2c8.1,9.2,10.6,15.4,10.6,27.5
			c0,31.2-18.7,43-67.9,43h-31.2V1419.7z"/>
	</g>
</g>
</svg>
