<?xml version="1.0" encoding="utf-8"?>
<!-- Generator: Adobe Illustrator 27.5.0, SVG Export Plug-In . SVG Version: 6.00 Build 0)  -->
<svg version="1.1" id="Layer_1" xmlns="http://www.w3.org/2000/svg" xmlns:xlink="http://www.w3.org/1999/xlink" x="0px" y="0px"
	 viewBox="0 0 884.4 898" style="enable-background:new 0 0 884.4 898;" xml:space="preserve">
<style type="text/css">
	.st0{fill:#74CCBD;stroke:#1D1D1B;stroke-width:5;stroke-miterlimit:10;}
	.st1{fill:none;stroke:#1D1D1B;stroke-width:5;stroke-miterlimit:10;}
	.st2{fill:#FFFFFF;stroke:#1D1D1B;stroke-width:5;stroke-miterlimit:10;}
	.st3{fill:#FFFFFF;stroke:#1D1D1B;stroke-width:5.0001;stroke-miterlimit:10.0002;}
	.st4{fill:#1D1D1B;}
	.st5{fill:#FFB480;}
	.st6{fill:#1D1D1B;stroke:#1D1D1B;stroke-width:10;stroke-miterlimit:10;}
	.st7{fill:#FFFFFF;stroke:#1D1D1B;stroke-width:10;stroke-miterlimit:10;}
	.st8{fill:none;stroke:#1D1D1B;stroke-width:10;stroke-miterlimit:10;}
	.st9{fill:#FFFFFF;}
	.st10{fill:#1D1D1B;stroke:#1D1D1B;stroke-width:5;stroke-miterlimit:10;}
	.st11{fill:#1D1D1B;stroke:#1D1D1B;stroke-miterlimit:10;}
	.st12{fill:#DF76FF;}
	.st13{fill:#1B0124;}
</style>
<path class="st0" d="M161.9,190.6c-5.7,0.2-32.7-11.3-43.3-12c-11.8-0.8-29,7.2-37.3,14c-11.3,9.4-16.2,42.8-7.4,56.9
	c7.7,12.4,53.5,12.6,55.6,12.5"/>
<line class="st1" x1="28.2" y1="667.6" x2="27.2" y2="825.9"/>
<circle class="st2" cx="27.6" cy="759" r="25.1"/>
<line class="st1" x1="85.2" y1="667.8" x2="84.2" y2="826.1"/>
<circle class="st2" cx="84.9" cy="712.2" r="25.1"/>
<line class="st1" x1="139.6" y1="667" x2="138.6" y2="825.3"/>
<ellipse transform="matrix(9.973667e-02 -0.995 0.995 9.973667e-02 -650.8323 841.0247)" class="st3" cx="139.4" cy="780.2" rx="25.1" ry="25.1"/>
<line class="st1" x1="198.1" y1="668.5" x2="197.1" y2="826.8"/>
<circle class="st2" cx="197.9" cy="712.9" r="25.1"/>
<path class="st4" d="M884.4,27.4v101.7c-0.1,12.7-11.5,22.5-24.3,22.5s-23.2-10.4-23.2-23.2s10.4-23.3,23.2-23.3c3.8,0,7.7,1,11,2.8
	c1.1,0.6,2.2,1.3,3.2,2.1V39l-86,12v119.3v2.1c0,12.8-11.4,21.2-24.2,21.2s-23.3-10.4-23.3-23.3s10.4-23.2,23.3-23.2
	c3.8,0,7.7,1,11,2.8c1.1,0.6,2.2,1.3,3.2,2.1V42.2L884.4,27.4z"/>
<path class="st5" d="M586.8,754.7L401.3,646.2c-39.6-27.5-56.9-82.9-56.9-82.9l268.7,155.1c19.4-12.7,45.1-14.3,66.5-1.9
	c30.3,17.5,40.7,56.4,23.2,86.7s-56.4,40.7-86.7,23.2C590.8,811.7,579.3,781.8,586.8,754.7z M674.3,786.7
	c8.4-14.5,3.4-33.2-11.1-41.6c-14.5-8.4-33.2-3.4-41.6,11.1c-8.4,14.5-3.4,33.2,11.1,41.6C647.3,806.2,665.9,801.2,674.3,786.7z"/>
<rect x="122.6" y="530.8" class="st6" width="719.8" height="85"/>
<rect x="122.6" y="352.5" class="st7" width="719.8" height="176.7"/>
<rect x="122.6" y="264.6" class="st6" width="719.8" height="85"/>
<line class="st8" x1="482.5" y1="352.5" x2="482.5" y2="529.2"/>
<rect x="797" y="286.5" class="st9" width="41.4" height="41.4"/>
<rect x="740.9" y="286.5" class="st9" width="41.4" height="41.4"/>
<rect x="684.6" y="286.5" class="st9" width="41.4" height="41.4"/>
<rect x="628.5" y="286.5" class="st9" width="41.4" height="41.4"/>
<rect x="573.4" y="286.5" class="st9" width="41.4" height="41.4"/>
<rect x="517.3" y="286.5" class="st9" width="41.4" height="41.4"/>
<rect x="461" y="286.5" class="st9" width="41.4" height="41.4"/>
<rect x="405" y="286.5" class="st9" width="41.4" height="41.4"/>
<rect x="350.2" y="286.5" class="st9" width="41.4" height="41.4"/>
<rect x="294.1" y="286.5" class="st9" width="41.4" height="41.4"/>
<rect x="237.8" y="286.5" class="st9" width="41.4" height="41.4"/>
<rect x="181.8" y="286.5" class="st9" width="41.4" height="41.4"/>
<rect x="126.7" y="286.5" class="st9" width="41.4" height="41.4"/>
<rect x="797" y="556.5" class="st9" width="41.4" height="41.4"/>
<rect x="740.9" y="556.5" class="st9" width="41.4" height="41.4"/>
<rect x="684.6" y="556.5" class="st9" width="41.4" height="41.4"/>
<rect x="628.5" y="556.5" class="st9" width="41.4" height="41.4"/>
<rect x="573.4" y="556.5" class="st9" width="41.4" height="41.4"/>
<rect x="517.3" y="556.5" class="st9" width="41.4" height="41.4"/>
<rect x="461" y="556.5" class="st9" width="41.4" height="41.4"/>
<rect x="405" y="556.5" class="st9" width="41.4" height="41.4"/>
<rect x="350.2" y="556.5" class="st9" width="41.4" height="41.4"/>
<rect x="294.1" y="556.5" class="st9" width="41.4" height="41.4"/>
<rect x="237.8" y="556.5" class="st9" width="41.4" height="41.4"/>
<rect x="181.8" y="556.5" class="st9" width="41.4" height="41.4"/>
<rect x="126.7" y="556.5" class="st9" width="41.4" height="41.4"/>
<path class="st2" d="M314,103.5c0,55.8-45.2,101-101,101c-23.2,0-40.8-8.3-46.8-11.5c-31-16.6-54.6-51.3-54.2-89.5
	c0.5-50.4,42.6-101,101-101S314,47.7,314,103.5z"/>
<circle class="st10" cx="213" cy="44.2" r="19.5"/>
<circle class="st10" cx="271.5" cy="103.5" r="19.5"/>
<circle class="st10" cx="213" cy="162.8" r="19.5"/>
<circle class="st10" cx="153.4" cy="103.5" r="19.5"/>
<circle class="st11" cx="213" cy="103.5" r="7.8"/>
<path class="st4" d="M253.9,409.9v61.9c0,4.2,4.4,7,8.2,5.1l62.7-30.7c4.3-2.1,4.3-8.1,0-10.3l-62.7-31.2
	C258.3,402.9,253.9,405.7,253.9,409.9z"/>
<path class="st4" d="M625.8,409.9v61.9c0,4.2,4.4,7,8.2,5.1l62.7-30.7c4.3-2.1,4.3-8.1,0-10.3L634,404.7
	C630.3,402.9,625.8,405.7,625.8,409.9z"/>
<g>
	<ellipse class="st12" cx="482.5" cy="440.3" rx="68.5" ry="73.1"/>
	<g>
		<g transform="translate(0.000000,239.000000) scale(0.100000,-0.100000)">
			<path class="st13" d="M4665.3-1130.4c-340.9-65.5-611.9-318.2-702.7-655.8c-23.3-85.6-31.7-269.5-16.7-363.6
				c81.7-516.4,589.3-855.6,1088.7-728c261.7,67.2,471,237.6,586.8,478.6c136.7,282.1,116.7,609.6-51.7,870.7
				C5448.9-1342,5265.5-1206,5054.6-1148C4956.2-1120.3,4762.9-1111.9,4665.3-1130.4z M4718.7-1604.8c51.7-22.7,105-78.1,130-133.5
				c25-57.1,24.2-165.4-2.5-226.7c-40.8-94-136.7-148.6-276.8-158.7l-73.4-5l-1.7-152l-2.5-152l-64.2-2.5l-65-2.5v423.2
				c0,232.6,2.5,425.7,6.7,429.1c3.3,3.4,73.4,5,155.9,3.4C4660.3-1584.6,4679.5-1587.2,4718.7-1604.8z M5283-1812.2
				c6.7-18.5,5.8-81.4-1.7-92.4c-3.3-5-32.5-11.8-65.9-14.3c-95-9.2-85.9,18.5-85.9-262.8v-246.9h-66.7h-66.7v289.7v288.8l25,13.4
				c31.7,16.8,140,36.1,205.1,36.9C5266.3-1798.8,5278.8-1802.1,5283-1812.2z"/>
			<path class="st13" d="M4496.1-1853.3v-155.3h50.8c111.7,0,173.4,36.9,189.2,113.4c16.7,77.2-14.2,149.5-76.7,179.7
				c-25.8,13.4-51.7,17.6-99.2,17.6H4496v-155.4H4496.1z"/>
		</g>
	</g>
</g>
<path class="st5" d="M527.7,773.2l-1.3-214.9c-4-48-43.3-90.7-43.3-90.7v310.3c-20.7,10.5-34.9,31.9-34.9,56.7
	c0,35,28.5,63.4,63.4,63.4s63.4-28.5,63.4-63.4C575,805.2,554.9,780.3,527.7,773.2z M511.6,865c-16.8,0-30.4-13.7-30.4-30.4
	s13.7-30.4,30.4-30.4c16.8,0,30.4,13.7,30.4,30.4S528.4,865,511.6,865z"/>
</svg>
