<?xml version="1.0" encoding="UTF-8"?>
<svg id="Layer_1" data-name="Layer 1" xmlns="http://www.w3.org/2000/svg" xmlns:xlink="http://www.w3.org/1999/xlink" viewBox="0 0 884.39 898.04">
  <defs>
    <style>
      .cls-1, .cls-2, .cls-3 {
        fill: #fff;
      }

      .cls-4 {
        fill: #ffb480;
      }

      .cls-5, .cls-6, .cls-2 {
        stroke-width: 5px;
      }

      .cls-5, .cls-6, .cls-2, .cls-7, .cls-8, .cls-3, .cls-9 {
        stroke: #1d1d1b;
        stroke-miterlimit: 10;
      }

      .cls-5, .cls-7, .cls-8, .cls-10 {
        fill: #1d1d1b;
      }

      .cls-6, .cls-9 {
        fill: none;
      }

      .cls-7, .cls-3, .cls-9 {
        stroke-width: 10px;
      }
    </style>
  </defs>
  <path class="cls-2" d="m161.87,190.57c-5.73.22-32.67-11.3-43.29-12.03-11.8-.81-29.02,7.17-37.28,14.04-11.29,9.4-16.2,42.75-7.4,56.94,7.67,12.38,53.52,12.57,55.57,12.51"/>
  <line class="cls-6" x1="28.19" y1="667.61" x2="27.17" y2="825.91"/>
  <circle class="cls-2" cx="27.6" cy="759.02" r="25.1"/>
  <line class="cls-6" x1="85.23" y1="667.77" x2="84.21" y2="826.07"/>
  <circle class="cls-2" cx="84.95" cy="712.21" r="25.1"/>
  <line class="cls-6" x1="139.58" y1="667.01" x2="138.56" y2="825.31"/>
  <circle class="cls-2" cx="139.3" cy="780.13" r="25.1" transform="translate(-645.03 893.39) rotate(-88.09)"/>
  <line class="cls-6" x1="198.14" y1="668.5" x2="197.11" y2="826.8"/>
  <circle class="cls-2" cx="197.85" cy="712.94" r="25.1"/>
  <path class="cls-10" d="m884.39,27.39v101.67c-.09,12.74-11.49,22.48-24.26,22.48s-23.25-10.43-23.25-23.25,10.43-23.26,23.25-23.26c3.85,0,7.66.96,11.03,2.77,1.14.62,2.22,1.33,3.23,2.11V38.89l-86,12.04v119.26l-.02,2.1c0,12.83-11.4,21.16-24.22,21.16s-23.26-10.43-23.26-23.26,10.43-23.25,23.26-23.25c3.85,0,7.66.96,11.02,2.77,1.14.61,2.22,1.32,3.22,2.09V42.23l106-14.84Z"/>
  <path class="cls-4" d="m586.78,754.69l-185.47-108.54c-39.57-27.46-56.85-82.87-56.85-82.87l268.72,155.14c19.4-12.68,45.1-14.26,66.51-1.9,30.29,17.49,40.71,56.37,23.22,86.66-17.49,30.29-56.37,40.71-86.66,23.22-25.49-14.71-36.91-44.58-29.47-71.71Zm87.55,31.99c8.39-14.53,3.4-33.19-11.14-41.58-14.53-8.39-33.19-3.39-41.58,11.14-8.39,14.54-3.39,33.19,11.14,41.58,14.54,8.39,33.19,3.4,41.58-11.14Z"/>
  <rect class="cls-7" x="122.59" y="530.84" width="719.82" height="85.04"/>
  <rect class="cls-3" x="122.59" y="352.53" width="719.82" height="176.68"/>
  <rect class="cls-7" x="122.59" y="264.64" width="719.82" height="85.04"/>
  <line class="cls-9" x1="482.49" y1="352.53" x2="482.49" y2="529.21"/>
  <rect class="cls-1" x="796.96" y="286.48" width="41.36" height="41.36"/>
  <rect class="cls-1" x="740.89" y="286.48" width="41.36" height="41.36"/>
  <rect class="cls-1" x="684.59" y="286.48" width="41.36" height="41.36"/>
  <rect class="cls-1" x="628.51" y="286.48" width="41.36" height="41.36"/>
  <rect class="cls-1" x="573.41" y="286.48" width="41.36" height="41.36"/>
  <rect class="cls-1" x="517.33" y="286.48" width="41.36" height="41.36"/>
  <rect class="cls-1" x="461.03" y="286.48" width="41.36" height="41.36"/>
  <rect class="cls-1" x="404.96" y="286.48" width="41.36" height="41.36"/>
  <rect class="cls-1" x="350.22" y="286.48" width="41.36" height="41.36"/>
  <rect class="cls-1" x="294.15" y="286.48" width="41.36" height="41.36"/>
  <rect class="cls-1" x="237.84" y="286.48" width="41.36" height="41.36"/>
  <rect class="cls-1" x="181.77" y="286.48" width="41.36" height="41.36"/>
  <rect class="cls-1" x="126.66" y="286.48" width="41.36" height="41.36"/>
  <rect class="cls-1" x="796.96" y="556.55" width="41.36" height="41.36"/>
  <rect class="cls-1" x="740.89" y="556.55" width="41.36" height="41.36"/>
  <rect class="cls-1" x="684.59" y="556.55" width="41.36" height="41.36"/>
  <rect class="cls-1" x="628.51" y="556.55" width="41.36" height="41.36"/>
  <rect class="cls-1" x="573.41" y="556.55" width="41.36" height="41.36"/>
  <rect class="cls-1" x="517.33" y="556.55" width="41.36" height="41.36"/>
  <rect class="cls-1" x="461.03" y="556.55" width="41.36" height="41.36"/>
  <rect class="cls-1" x="404.96" y="556.55" width="41.36" height="41.36"/>
  <rect class="cls-1" x="350.22" y="556.55" width="41.36" height="41.36"/>
  <rect class="cls-1" x="294.15" y="556.55" width="41.36" height="41.36"/>
  <rect class="cls-1" x="237.84" y="556.55" width="41.36" height="41.36"/>
  <rect class="cls-1" x="181.77" y="556.55" width="41.36" height="41.36"/>
  <rect class="cls-1" x="126.66" y="556.55" width="41.36" height="41.36"/>
  <path class="cls-2" d="m313.96,103.5c0,55.78-45.22,101-101,101-23.25,0-40.82-8.26-46.79-11.47-31-16.65-54.59-51.33-54.21-89.53.5-50.36,42.61-101,101-101s101,45.22,101,101Z"/>
  <circle class="cls-5" cx="212.96" cy="44.19" r="19.5"/>
  <circle class="cls-5" cx="271.46" cy="103.5" r="19.5"/>
  <circle class="cls-5" cx="212.96" cy="162.81" r="19.5"/>
  <circle class="cls-5" cx="153.45" cy="103.5" r="19.5"/>
  <circle class="cls-8" cx="212.96" cy="103.5" r="7.83"/>
  <path class="cls-10" d="m253.86,409.91v61.92c0,4.23,4.44,7,8.24,5.14l62.69-30.7c4.26-2.09,4.28-8.15.03-10.26l-62.69-31.22c-3.8-1.89-8.27.87-8.27,5.12Z"/>
  <path class="cls-10" d="m625.79,409.91v61.92c0,4.23,4.44,7,8.24,5.14l62.69-30.7c4.26-2.09,4.28-8.15.03-10.26l-62.69-31.22c-3.8-1.89-8.27.87-8.27,5.12Z"/>
  <image width="245" height="239" transform="translate(391.94 351.92) scale(.74)" xlink:href="../../../../../../Downloads/Pr-removebg-preview.png"/>
  <path class="cls-4" d="m527.66,773.22l-1.27-214.89c-4-48-43.34-90.67-43.34-90.67v310.29c-20.68,10.46-34.9,31.93-34.9,56.65,0,34.98,28.46,63.44,63.44,63.44s63.44-28.46,63.44-63.44c0-29.43-20.15-54.25-47.37-61.38Zm-16.07,91.82c-16.78,0-30.44-13.65-30.44-30.44s13.66-30.44,30.44-30.44,30.44,13.66,30.44,30.44-13.65,30.44-30.44,30.44Z"/>
</svg>