<?xml version="1.0" encoding="UTF-8"?>
<svg id="Layer_1" data-name="Layer 1" xmlns="http://www.w3.org/2000/svg" viewBox="0 0 566.38 298.72">
  <defs>
    <style>
      .cls-1, .cls-2 {
        fill: #fff;
      }

      .cls-3 {
        fill: #faef83;
      }

      .cls-3, .cls-4, .cls-5, .cls-6, .cls-2, .cls-7, .cls-8 {
        stroke-miterlimit: 10;
      }

      .cls-3, .cls-8 {
        stroke: #1d1d1b;
      }

      .cls-9, .cls-6 {
        fill: #ffb480;
      }

      .cls-10 {
        letter-spacing: -.02em;
      }

      .cls-4 {
        fill: #9d9d9c;
      }

      .cls-4, .cls-5, .cls-6, .cls-2, .cls-7 {
        stroke: #000;
      }

      .cls-11 {
        letter-spacing: .02em;
      }

      .cls-12 {
        letter-spacing: 0em;
      }

      .cls-13 {
        letter-spacing: -.03em;
      }

      .cls-14 {
        letter-spacing: -.03em;
      }

      .cls-15 {
        letter-spacing: 0em;
      }

      .cls-16 {
        letter-spacing: 0em;
      }

      .cls-7 {
        fill: #74ccbd;
      }

      .cls-17 {
        letter-spacing: 0em;
      }

      .cls-18 {
        letter-spacing: -.03em;
      }

      .cls-8 {
        fill: #1d1d1b;
      }

      .cls-19 {
        font-family: WorkSans-LightItalic, 'Work Sans';
        font-size: 27.66px;
        font-style: italic;
        font-variation-settings: 'wght' 300;
        font-weight: 300;
      }
    </style>
  </defs>
  <path class="cls-3" d="m199.43,78.8c-9.79,8.5-13.67,20.06-21.19,11.38-7.53-8.67-15.86-34.29-6.07-42.79,9.79-8.5,23.82-8.35,31.35.32,7.53,8.67,5.7,22.59-4.09,31.09Z"/>
  <path class="cls-3" d="m175.02,63.13c0,12.96,6.19,23.47-5.3,23.47s-36.29-10.51-36.29-23.47,9.31-23.47,20.79-23.47,20.79,10.51,20.79,23.47Z"/>
  <path class="cls-3" d="m148.04,80.01c0,12.96,6.19,23.47-5.3,23.47s-36.29-10.51-36.29-23.47,9.31-23.47,20.79-23.47,20.79,10.51,20.79,23.47Z"/>
  <path class="cls-3" d="m138.49,105.93c0,12.96,6.19,23.47-5.3,23.47s-36.29-10.51-36.29-23.47,9.31-23.47,20.79-23.47,20.79,10.51,20.79,23.47Z"/>
  <path class="cls-6" d="m204.21,101.19c-9.81,23.74-14.44,47.28-39.04,47.28s-16.93-8.96-40.22-31.39c-18.81-18.11,15.62-63.17,40.22-63.17s49.01,23.15,39.04,47.28Z"/>
  <polygon class="cls-5" points="419.6 286.46 281.21 285.91 340.55 145.14 477.45 145.05 419.6 286.46"/>
  <circle class="cls-1" cx="379.33" cy="215.75" r="11.48"/>
  <polygon class="cls-4" points="279.73 285.64 181.99 285.64 214.19 256.84 291.61 256.86 279.73 285.64"/>
  <ellipse class="cls-6" cx="223.76" cy="230.29" rx="23.91" ry="6.25" transform="translate(-96.87 212.93) rotate(-42.73)"/>
  <path class="cls-6" d="m236.4,243.99c9.7-8.96,15.66-18.28,13.32-20.81-2.34-2.54-12.11,2.67-21.81,11.63-9.7,8.96-15.02,14.81-12.68,17.35s11.46.8,21.16-8.16Z"/>
  <path class="cls-9" d="m229.81,242.44c9.7-8.96-3.99-8.39-1.17-10.38,2.5-1.76-11.68,3.46-23.07,10.13-10.74,6.29-14.19,12.01-11.84,14.54,2.34,2.54,26.39-5.33,36.09-14.29Z"/>
  <path class="cls-7" d="m223.76,212.82c-14.69,16.14-16.54,10.67-26.75,16.96-9.48,5.84-10.66-39.63-14.21-60.88-3.82-22.87-.5-39.21,12.15-45.64,9.93-5.04,43.31,73.62,28.81,89.55Z"/>
  <polygon class="cls-2" points="198.46 243.03 111.65 266.8 157.47 148.95 180.84 145.58 198.46 243.03"/>
  <path class="cls-9" d="m187.5,245.42c2.34,2.54,26.39-5.33,36.09-14.29,9.7-8.96-3.99-8.39-1.17-10.38"/>
  <polygon class="cls-6" points="196.71 271.04 175.07 243.45 201.56 227.27 221.84 252.73 196.71 271.04"/>
  <path class="cls-7" d="m111.65,266.8c8.05-10.34,15.83-24.54,21.87-40.92,13.81-37.44,18.82-90.72,4.38-96.04s-42.85,39.33-56.66,76.77c-13.61,36.91-14.65,66.54-.92,77.18"/>
  <polyline class="cls-7" points="141.35 133.53 141.54 132.65 157.47 148.95 160.07 243.03 126.2 241.26"/>
  <path class="cls-7" d="m73.75,275c4.57,12.52,25.21,23.22,55.33,23.22s73.62-20.28,65.52-30.86c-23.87-31.23-11-29.2-65.52-6.41-6.19,2.59-12.33,4.01-18.13,4.81"/>
  <ellipse class="cls-8" cx="144.86" cy="95.1" rx="6.95" ry="4.06" transform="translate(-14.76 27.65) rotate(-10.38)"/>
  <ellipse class="cls-8" cx="181.3" cy="89.72" rx="6.95" ry="4.06" transform="translate(-13.2 34.13) rotate(-10.38)"/>
  <path class="cls-8" d="m180.37,113.7c.12.63-9.47,7.64-13.25,8.33-3.78.69-14.88-3.14-15-3.77s10.8,2.18,14.58,1.48,13.55-6.68,13.67-6.04Z"/>
  <path class="cls-6" d="m213.22,232.13c9.7-8.96,23.2-24.24,20.86-26.77-2.34-2.54-11.63,2.96-21.33,11.92-9.7,8.96-14.85,12.32-12.51,14.86,2.34,2.54,3.28,8.95,12.98,0Z"/>
  <path class="cls-9" d="m223.04,250.82c9.7-8.96-.66-34.14-3-36.67-2.34-2.54-9.5,9.36-20.89,16.04-10.74,6.29-14.19,12.01-11.84,14.54s26.04,15.05,35.74,6.09Z"/>
  <text class="cls-19" transform="translate(275.31 22.96)"><tspan class="cls-17" x="0" y="0">J</tspan><tspan x="14.11" y="0">a</tspan><tspan class="cls-11" x="30.7" y="0">v</tspan><tspan x="44.59" y="0">a Scri</tspan><tspan class="cls-10" x="117.72" y="0">p</tspan><tspan class="cls-12" x="133.9" y="0">t</tspan></text>
  <text class="cls-19" transform="translate(40 45.22)"><tspan x="0" y="0">HTM</tspan><tspan class="cls-13" x="57.34" y="0">L</tspan></text>
  <text class="cls-19" transform="translate(273.23 117.99)"><tspan x="0" y="0">&lt;h1&gt;</tspan><tspan class="cls-12" x="59.14" y="0">H</tspan><tspan x="78.42" y="0">el</tspan><tspan class="cls-16" x="101.13" y="0">l</tspan><tspan x="108.32" y="0">o</tspan><tspan class="cls-18" x="124.33" y="0"> </tspan><tspan class="cls-14" x="132.05" y="0">W</tspan><tspan x="156.67" y="0">or</tspan><tspan class="cls-16" x="182.78" y="0">l</tspan><tspan x="189.97" y="0">d!&lt;/h1&gt;</tspan></text>
  <text class="cls-19" transform="translate(0 171.46)"><tspan class="cls-15" x="0" y="0">CS</tspan><tspan x="35.43" y="0">S</tspan></text>
</svg>