<?xml version="1.0" encoding="UTF-8"?>
<svg id="Layer_1" data-name="Layer 1" xmlns="http://www.w3.org/2000/svg" viewBox="0 0 556.3 295.5">
  <defs>
    <style>
      .cls-1 {
        fill: #2489ca;
      }

      .cls-2 {
        fill: #faef83;
      }

      .cls-2, .cls-3, .cls-4, .cls-5, .cls-6, .cls-7, .cls-8 {
        stroke-miterlimit: 10;
      }

      .cls-2, .cls-9, .cls-8 {
        stroke: #1d1d1b;
      }

      .cls-10, .cls-5, .cls-11 {
        fill: #ffb480;
      }

      .cls-3 {
        fill: #9d9d9c;
      }

      .cls-3, .cls-4, .cls-5, .cls-6, .cls-7, .cls-11 {
        stroke: #000;
      }

      .cls-12 {
        isolation: isolate;
      }

      .cls-9 {
        stroke-miterlimit: 10;
        stroke-width: 1px;
      }

      .cls-9, .cls-8 {
        fill: #1d1d1b;
      }

      .cls-13 {
        fill: #0877b9;
      }

      .cls-14 {
        fill: #1070b3;
      }

      .cls-15 {
        fill: #3c99d4;
      }

      .cls-6 {
        fill: #fff;
      }

      .cls-7 {
        fill: #74ccbd;
      }

      .cls-11 {
        stroke-miterlimit: 10;
        stroke-width: 1px;
      }
    </style>
  </defs>
  <path class="cls-2" d="m197.2,75.6c-9.8,8.5-13.7,20.1-21.2,11.4s-15.9-34.3-6.1-42.8,23.8-8.3,31.4.3,5.7,22.6-4.1,31.1Z"/>
  <path class="cls-2" d="m172.8,59.9c0,13,6.2,23.5-5.3,23.5s-36.3-10.5-36.3-23.5,9.3-23.5,20.8-23.5,20.8,10.6,20.8,23.5h0Z"/>
  <path class="cls-2" d="m145.8,76.8c0,13,6.2,23.5-5.3,23.5s-36.3-10.5-36.3-23.5,9.3-23.5,20.8-23.5,20.8,10.6,20.8,23.5h0Z"/>
  <path class="cls-2" d="m136.3,102.7c0,13,6.2,23.5-5.3,23.5s-36.3-10.5-36.3-23.5,9.3-23.5,20.8-23.5,20.8,10.6,20.8,23.5h0Z"/>
  <path class="cls-5" d="m202,98c-9.8,23.7-14.4,47.3-39,47.3s-16.9-9-40.2-31.4c-18.8-18.1,15.6-63.2,40.2-63.2s49,23.2,39,47.3h0Z"/>
  <polygon class="cls-4" points="417.4 283.3 279 282.7 338.3 141.9 475.3 141.9 417.4 283.3"/>
  <polygon class="cls-3" points="277.5 282.4 179.8 282.4 212 253.6 289.4 253.7 277.5 282.4"/>
  <ellipse class="cls-11" cx="221.61" cy="227.08" rx="23.9" ry="6.2" transform="translate(-95.26 210.63) rotate(-42.73)"/>
  <path class="cls-5" d="m234.2,240.8c9.7-9,15.7-18.3,13.3-20.8-2.3-2.5-12.1,2.7-21.8,11.6s-15,14.8-12.7,17.4,11.5.8,21.2-8.2h0Z"/>
  <path class="cls-10" d="m227.6,239.2c9.7-9-4-8.4-1.2-10.4,2.5-1.8-11.7,3.5-23.1,10.1-10.7,6.3-14.2,12-11.8,14.5,2.4,2.7,26.4-5.2,36.1-14.2h0Z"/>
  <path class="cls-7" d="m221.6,209.6c-14.7,16.1-16.5,10.7-26.8,17-9.5,5.8-10.7-39.6-14.2-60.9-3.8-22.9-.5-39.2,12.1-45.6,10-5.1,43.4,73.6,28.9,89.5h0Z"/>
  <polygon class="cls-6" points="196.3 239.8 109.5 263.6 155.3 145.7 178.6 142.4 196.3 239.8"/>
  <path class="cls-10" d="m185.3,242.2c2.3,2.5,26.4-5.3,36.1-14.3,9.7-9-4-8.4-1.2-10.4"/>
  <polygon class="cls-5" points="194.5 267.8 172.9 240.2 199.4 224.1 219.6 249.5 194.5 267.8"/>
  <path class="cls-7" d="m109.5,263.6c8.1-10.3,15.8-24.5,21.9-40.9,13.8-37.4,18.8-90.7,4.4-96s-42.8,39.3-56.7,76.8c-13.6,36.9-14.7,66.5-.9,77.2"/>
  <polyline class="cls-7" points="139.2 130.3 139.3 129.4 155.3 145.7 157.9 239.8 124 238.1"/>
  <path class="cls-7" d="m71.6,271.8c4.6,12.5,25.2,23.2,55.3,23.2s73.6-20.3,65.5-30.9c-23.9-31.2-11-29.2-65.5-6.4-6.2,2.6-12.3,4-18.1,4.8"/>
  <ellipse class="cls-9" cx="142.7" cy="91.89" rx="6.9" ry="4.1" transform="translate(-14.22 27.22) rotate(-10.38)"/>
  <ellipse class="cls-9" cx="179.09" cy="86.49" rx="6.9" ry="4.1" transform="translate(-12.65 33.69) rotate(-10.38)"/>
  <path class="cls-8" d="m178.2,110.5c.1.6-9.5,7.6-13.2,8.3s-14.9-3.1-15-3.8,10.8,2.2,14.6,1.5,13.4-6.6,13.6-6Z"/>
  <path class="cls-5" d="m211,228.9c9.7-9,23.2-24.2,20.9-26.8-2.3-2.5-11.6,3-21.3,11.9-9.7,9-14.9,12.3-12.5,14.9,2.3,2.6,3.2,9,12.9,0h0Z"/>
  <path class="cls-10" d="m220.8,247.6c9.7-9-.7-34.1-3-36.7-2.3-2.5-9.5,9.4-20.9,16-10.7,6.3-14.2,12-11.8,14.5s26.1,15.2,35.7,6.2h0Z"/>
  <g class="cls-12">
    <path d="m279,20c-1,0-1.8-.2-2.5-.5s-1.3-.8-1.7-1.5c-.4-.6-.7-1.4-.7-2.2-.1-.8.1-1.7.4-2.7l2.1-.1c-.3,1-.4,1.8-.3,2.6s.4,1.4.9,1.8,1.2.6,2.2.6c1.2,0,2.1-.3,2.7-1s1.1-1.8,1.4-3.5l2.8-12h2.2l-2.9,12.5c-.3,1.1-.6,2.1-1.1,3s-1.2,1.6-2,2.1c-1.1.6-2.1.9-3.5.9Z"/>
  </g>
  <g class="cls-12">
    <path d="m294.2,20c-1.1,0-2-.3-2.8-.8s-1.4-1.2-1.9-2.1-.7-2-.7-3.2c0-1.1.2-2.2.5-3.2.4-1,.8-1.9,1.5-2.6s1.4-1.3,2.2-1.8c.9-.4,1.8-.6,2.8-.6.8,0,1.5.1,2.2.4.6.3,1.2.7,1.6,1.2s.7,1.1.9,1.8l.7-3.1h2.2l-3.2,13.8h-1.9l.5-2.6c-.4.8-1.1,1.5-1.9,2-.9.5-1.8.8-2.7.8Zm.5-1.9c.6,0,1.3-.2,1.8-.5s1.1-.8,1.5-1.4c.5-.6.8-1.3,1.1-2,.3-.8.4-1.6.4-2.5,0-.8-.2-1.6-.5-2.2-.3-.6-.7-1.1-1.3-1.4s-1.2-.5-1.9-.5-1.4.2-2,.5-1.1.8-1.6,1.3c-.4.6-.8,1.2-1,2s-.4,1.6-.4,2.5.1,1.7.4,2.3.7,1.1,1.3,1.4,1.4.5,2.2.5Z"/>
  </g>
  <g class="cls-12">
    <path d="m316.4,5.9h2.5l-8.7,13.9h-2.2l-2.4-13.8h2.2l1.9,12.2-.6-.1,7.3-12.2Z"/>
  </g>
  <g class="cls-12">
    <path d="m324.6,20c-1.1,0-2-.3-2.8-.8s-1.4-1.2-1.9-2.1-.7-2-.7-3.2c0-1.1.2-2.2.5-3.2s.8-1.9,1.5-2.6,1.4-1.3,2.2-1.8c.9-.4,1.8-.6,2.8-.6.8,0,1.5.1,2.2.4.6.3,1.2.7,1.6,1.2s.7,1.1.9,1.8l.7-3.1h2.2l-3.1,13.8h-1.9l.5-2.6c-.4.8-1.1,1.5-1.9,2s-1.8.8-2.8.8Zm.6-1.9c.6,0,1.3-.2,1.8-.5.6-.3,1.1-.8,1.5-1.4.5-.6.8-1.3,1.1-2,.3-.8.4-1.6.4-2.5,0-.8-.2-1.6-.5-2.2-.3-.6-.7-1.1-1.3-1.4s-1.2-.5-1.9-.5-1.4.2-2,.5-1.1.8-1.6,1.3c-.4.6-.8,1.2-1,2s-.4,1.6-.4,2.5.1,1.7.4,2.3.7,1.1,1.3,1.4,1.4.5,2.2.5Z"/>
    <path d="m353.4,20c-1.4,0-2.6-.2-3.7-.6s-2-1-2.8-1.8-1.4-1.8-1.8-3l2.2-1.1c.3,1.1.8,1.9,1.4,2.6s1.3,1.1,2.2,1.4c.8.3,1.7.4,2.7.4.9,0,1.7-.2,2.3-.5s1.1-.7,1.4-1.2.5-1,.5-1.6c0-.7-.2-1.2-.7-1.6-.4-.4-1.1-.7-1.9-.9l-3-.8c-.9-.3-1.7-.6-2.4-1.1-.7-.4-1.2-1-1.5-1.6s-.5-1.3-.5-2c0-1,.3-1.9.8-2.8.5-.8,1.3-1.5,2.3-2s2.2-.7,3.5-.7c1.8,0,3.3.4,4.5,1.1s2.1,1.9,2.6,3.4l-2.2,1.1c-.2-1-.6-1.7-1.1-2.2s-1.1-.8-1.8-1c-.7-.2-1.4-.3-2.1-.3-.9,0-1.7.1-2.3.4-.6.3-1.1.6-1.4,1.1s-.5,1-.5,1.5c0,.6.2,1.2.7,1.7s1.1.9,1.9,1.1l3.3.9c1.3.4,2.3.9,3,1.6.6.7,1,1.6,1,2.6,0,1.1-.3,2.1-.9,3-.6.8-1.4,1.5-2.4,2-1.1.7-2.1.9-3.3.9Z"/>
    <path d="m369.4,20c-1.3,0-2.4-.3-3.3-.8s-1.6-1.3-2.1-2.3c-.5-.9-.7-2-.7-3.1,0-1.6.3-3,.9-4.2s1.5-2.2,2.5-2.8c1.1-.7,2.4-1,3.8-1,1.1,0,2,.2,2.8.6s1.4.9,1.9,1.5.8,1.4,1,2.2l-2.3.6c-.1-.8-.4-1.5-1-2.1-.6-.6-1.4-.8-2.5-.8-.7,0-1.4.1-2,.4-.6.3-1.1.7-1.6,1.3-.4.5-.8,1.2-1,1.9s-.4,1.6-.4,2.5c0,.8.2,1.5.5,2.2s.8,1.2,1.4,1.6,1.3.6,2.2.6c.7,0,1.4-.2,2-.6s1.1-.9,1.3-1.6l2.2.8c-.5,1.1-1.2,1.9-2.3,2.5s-2,.6-3.3.6Z"/>
    <path d="m377.4,19.8l3.2-13.8h1.8l-.3,3.2-.3-.2c.3-.7.7-1.3,1.2-1.8s1.1-.9,1.8-1.1c.7-.3,1.3-.4,2-.4.3,0,.6,0,.8.1.2,0,.4.1.6.2l-.7,2.1c-.2-.1-.4-.2-.6-.2s-.5-.1-.8-.1c-.7,0-1.4.2-2,.5s-1.2.8-1.6,1.5-.8,1.5-1.1,2.6l-1.7,7.5h-2.3v-.1Z"/>
    <path d="m393.6,5.9l-3.2,13.9h-2.2l3.2-13.8h2.2v-.1Zm-.3-2.6c-.4,0-.8-.1-1.1-.4-.3-.3-.4-.6-.4-1,0-.6.2-1,.5-1.4.3-.3.8-.5,1.2-.5s.8.1,1.1.4.4.6.4,1c0,.6-.2,1-.5,1.4-.3.3-.7.5-1.2.5Z"/>
  </g>
  <g class="cls-12">
    <path d="m390.4,25.6l4.5-19.6h1.9l-.6,3.4-.4.3c.2-.8.6-1.5,1.1-2.1.5-.6,1.1-1,1.9-1.4s1.5-.5,2.4-.5c1,0,1.9.2,2.6.7s1.4,1.2,1.8,2.1c.5.9.7,2,.7,3.2s-.2,2.3-.5,3.3c-.4,1-.9,1.9-1.5,2.6s-1.4,1.3-2.3,1.7-1.8.6-2.8.6c-.9,0-1.7-.2-2.4-.5-.7-.4-1.3-.9-1.7-1.5-.4-.7-.6-1.4-.7-2.3l.4-.2-2.3,10.1h-2.1v.1Zm8.9-7.5c.7,0,1.3-.2,1.9-.5s1.1-.8,1.6-1.3c.5-.6.8-1.3,1.1-2,.3-.8.4-1.6.4-2.5s-.2-1.6-.5-2.3-.7-1.1-1.3-1.4c-.6-.3-1.2-.5-1.9-.5s-1.4.2-2,.5-1.1.8-1.6,1.3c-.4.6-.8,1.3-1,2-.2.8-.4,1.7-.4,2.6,0,1.2.3,2.2,1,2.9.5.9,1.4,1.2,2.7,1.2Z"/>
  </g>
  <g class="cls-12">
    <path d="m408.8,7.8l.4-1.9h9.3l-.4,1.9h-9.3Zm4.7,12.2c-.9,0-1.6-.2-2.3-.5-.6-.3-1.1-.9-1.3-1.5-.3-.7-.3-1.5-.1-2.4l2.9-12.7,2.4-.7-3.2,13.5c-.2.8-.1,1.5.3,1.8.4.4.9.5,1.6.5.5,0,.9-.1,1.2-.2.3-.1.7-.3.9-.5l.4,1.8c-.5.3-.9.5-1.4.6-.3.2-.8.3-1.4.3Z"/>
  </g>
  <g class="cls-12">
    <path d="m45.5,23.8l-4.2,18.3h-2.2l4.2-18.3h2.2Zm8.9,7.9l-.5,2.1h-11.7l.5-2.1h11.7Zm3-7.9l-4.2,18.3h-2.2l4.2-18.3h2.2Z"/>
    <path d="m75.8,23.8l-.5,2h-6.2l-3.7,16.2h-2.2l3.8-16.2h-6.3l.5-2.1h14.6v.1Z"/>
    <path d="m75.4,42l4.2-18.2h3.2l1.4,11.3.4,4.2h0l2.2-4.2,6.6-11.3h3.6l-4.2,18.3h-2.1l2.7-11.5,1.2-4.8h0l-9.6,16.3h-1.9l-2-16.3h0l-.9,4.8-2.7,11.5h-2.1v-.1Z"/>
  </g>
  <g class="cls-12">
    <path d="m99.1,39.9h10.3l-.5,2.1h-12.5l4.2-18.3h2.2l-3.7,16.2Z"/>
  </g>
  <g class="cls-12">
    <path d="m288.2,99l-.6,2.3-12.7,5.2,10.3,5.3-.5,2.1-11.7-6.2.6-2.6,14.6-6.1Z"/>
    <path d="m288.6,114.8l4.7-20.2h2.2l-2.1,9.1-.4.2c.3-.7.7-1.3,1.2-1.8s1.1-.8,1.8-1.1c.7-.2,1.4-.4,2.2-.4,1,0,1.9.2,2.7.7s1.3,1.1,1.6,2c.3.9.3,1.9.1,3.1l-1.9,8.3h-2.2l1.9-8.4c.3-1.2.2-2.1-.3-2.8-.5-.7-1.3-1-2.4-1-.8,0-1.6.2-2.3.6-.7.4-1.2.9-1.7,1.6s-.8,1.6-1.1,2.7l-1.8,7.4h-2.2Z"/>
    <path d="m308,114.8l3-12.9c.1-.6.3-1.1.4-1.5s.3-.9.4-1.3c-.4.3-.8.7-1.5,1-.6.3-1.3.6-1.9.9-.7.3-1.3.4-1.9.6v-2.2c.7-.1,1.4-.4,2.2-.7.8-.3,1.5-.7,2.2-1.1s1.2-.8,1.6-1.1h1.9l-4.2,18.3h-2.2Z"/>
    <path d="m315.1,114l.6-2.3,12.7-5.2-10.3-5.3.5-2.1,11.7,6.2-.6,2.6-14.6,6.1Z"/>
  </g>
  <g class="cls-12">
    <path d="m337.9,96.5l-4.2,18.3h-2.2l4.2-18.3h2.2Zm8.8,8l-.5,2.1h-11.7l.5-2.1h11.7Zm3.1-8l-4.2,18.3h-2.2l4.2-18.3h2.2Z"/>
  </g>
  <g class="cls-12">
    <path d="m357.1,115c-1.3,0-2.4-.3-3.3-.8-.9-.6-1.6-1.3-2.1-2.2s-.7-2-.7-3.2c0-1.4.3-2.8.9-4s1.4-2.2,2.5-3c1.1-.7,2.4-1.1,4-1.1,1.1,0,2.1.2,2.9.7s1.4,1.1,1.8,1.9.6,1.7.6,2.7c0,.4,0,.8-.1,1.1-.1.4-.2.8-.3,1.2h-11.3v-1.9h10.3l-1,.8c.1-.2.1-.4.1-.7v-.6c0-.7-.1-1.2-.4-1.7s-.7-.9-1.1-1.2c-.5-.3-1.1-.4-1.8-.4-.9,0-1.7.2-2.3.5-.6.4-1.2.8-1.5,1.5s-.7,1.3-.9,2c-.2.7-.3,1.5-.3,2.3s.2,1.6.5,2.2.8,1.1,1.4,1.5,1.3.5,2.2.5,1.7-.2,2.3-.6c.6-.4,1.1-.9,1.5-1.5l1.7,1.2c-.4.6-.9,1.1-1.5,1.5s-1.2.8-2,1-1.2.3-2.1.3Z"/>
    <path d="m369.9,115c-1.3,0-2.2-.4-2.7-1.1s-.6-1.8-.3-3l3.8-16.2h2.2l-3.8,16.3c-.2.8-.1,1.3.2,1.6s.8.5,1.5.5h.7c.2,0,.4,0,.6-.1l-.6,1.8c-.3.1-.6.2-.8.2h-.8Z"/>
  </g>
  <g class="cls-12">
    <path d="m376.8,115c-1.3,0-2.2-.4-2.7-1.1s-.6-1.8-.3-3l3.8-16.2h2.2l-3.8,16.3c-.2.8-.1,1.3.2,1.6s.8.5,1.5.5h.7c.2,0,.4,0,.6-.1l-.6,1.8c-.3.1-.6.2-.8.2h-.8Z"/>
  </g>
  <g class="cls-12">
    <path d="m387.2,115c-1.3,0-2.5-.3-3.4-.8-.9-.6-1.6-1.3-2.1-2.3-.5-.9-.7-2-.7-3.1,0-1.6.3-3,.9-4.2s1.4-2.2,2.5-2.9c1.1-.7,2.3-1,3.7-1,1.3,0,2.5.3,3.4.8.9.6,1.6,1.3,2.1,2.2.5.9.7,2,.7,3.1,0,1.6-.3,3-.9,4.2s-1.4,2.2-2.5,2.9c-1.1.8-2.3,1.1-3.7,1.1Zm0-1.9c.7,0,1.3-.1,1.9-.4s1.1-.7,1.5-1.2.8-1.2,1-2,.4-1.6.4-2.5c0-.8-.1-1.5-.4-2.2s-.7-1.2-1.3-1.6c-.6-.4-1.4-.6-2.3-.6-.7,0-1.3.1-1.9.4s-1.1.7-1.5,1.2-.8,1.2-1,1.9-.4,1.6-.4,2.5c0,.8.1,1.5.4,2.2s.7,1.2,1.4,1.6,1.3.7,2.2.7Z"/>
  </g>
  <g class="cls-12">
    <path d="m407.7,114.8l-1.1-18.3h2.1l.7,16,7.6-16h2.7l.5,16.1,8.1-16.1h2.4l-9.5,18.3h-2.8l-.5-11.8v-4.1h0l-1.8,4.1-5.8,11.8h-2.6Z"/>
  </g>
  <g class="cls-12">
    <path d="m435.5,115c-1.3,0-2.5-.3-3.4-.8-.9-.6-1.6-1.3-2.1-2.3-.5-.9-.7-2-.7-3.1,0-1.6.3-3,.9-4.2s1.4-2.2,2.5-2.9,2.3-1,3.7-1c1.3,0,2.5.3,3.4.8s1.6,1.3,2.1,2.2c.5.9.7,2,.7,3.1,0,1.6-.3,3-.9,4.2s-1.4,2.2-2.5,2.9c-1.1.8-2.3,1.1-3.7,1.1Zm.1-1.9c.7,0,1.3-.1,1.9-.4s1.1-.7,1.5-1.2.8-1.2,1-2,.4-1.6.4-2.5c0-.8-.1-1.5-.4-2.2s-.7-1.2-1.3-1.6c-.6-.4-1.4-.6-2.3-.6-.7,0-1.3.1-1.9.4s-1.1.7-1.5,1.2-.8,1.2-1,1.9c-.2.8-.4,1.6-.4,2.5,0,.8.1,1.5.4,2.2s.7,1.2,1.4,1.6,1.3.7,2.2.7Z"/>
    <path d="m445,114.8l3.2-13.8h1.8l-.3,3.2-.3-.2c.3-.7.7-1.3,1.2-1.8s1.1-.9,1.8-1.1c.7-.3,1.3-.4,2-.4.3,0,.6,0,.8.1.2,0,.4.1.6.2l-.7,2.1c-.2-.1-.4-.2-.6-.2s-.5-.1-.8-.1c-.7,0-1.4.2-2,.5s-1.2.8-1.6,1.5-.8,1.5-1.1,2.6l-1.7,7.5h-2.3v-.1Z"/>
  </g>
  <g class="cls-12">
    <path d="m458.5,115c-1.3,0-2.2-.4-2.7-1.1-.5-.8-.6-1.8-.3-3l3.8-16.2h2.2l-3.8,16.3c-.2.8-.1,1.3.2,1.6.3.3.8.5,1.5.5h.7c.2,0,.4,0,.6-.1l-.6,1.8c-.3.1-.6.2-.8.2h-.8Z"/>
  </g>
  <g class="cls-12">
    <path d="m467.9,115c-1.1,0-2-.3-2.8-.8s-1.4-1.2-1.9-2.1-.7-2-.7-3.2c0-1.1.2-2.2.5-3.2s.8-1.9,1.5-2.6,1.4-1.3,2.2-1.8c.9-.4,1.8-.6,2.8-.6.8,0,1.5.1,2.2.4.6.3,1.2.7,1.6,1.2s.7,1.1.9,1.8l2.2-9.5h2.2l-4.7,20.2h-1.9l.5-2.6c-.4.8-1.1,1.5-1.9,2s-1.7.8-2.7.8Zm.6-1.9c.7,0,1.3-.2,1.9-.5s1.1-.8,1.5-1.4.8-1.3,1.1-2c.3-.8.4-1.6.4-2.5,0-.8-.2-1.6-.5-2.2s-.7-1.1-1.3-1.4-1.2-.5-1.9-.5-1.4.2-2,.5-1.1.8-1.6,1.3c-.4.6-.8,1.2-1,2s-.4,1.6-.4,2.5.1,1.7.4,2.3.7,1.1,1.3,1.4,1.3.5,2.1.5Z"/>
    <path d="m480.4,115.1c-.5,0-.8-.1-1.1-.4-.3-.3-.5-.7-.5-1.1,0-.6.2-1.1.6-1.5s.8-.6,1.3-.6.8.1,1.1.4c.3.3.5.7.5,1.1,0,.6-.2,1.1-.5,1.5-.5.4-.9.6-1.4.6Zm.2-6.1l.7-4.6,1.8-7.9h2.4l-1.8,7.9-1.4,4.6h-1.7Z"/>
    <path d="m502.6,99l-.6,2.3-12.7,5.2,10.3,5.3-.5,2.1-11.7-6.2.6-2.6,14.6-6.1Z"/>
    <path d="m516.1,94.6l-13,22.1h-2.3l13-22.1h2.3Z"/>
    <path d="m514.6,114.8l4.7-20.2h2.2l-2.1,9.1-.4.2c.3-.7.6-1.3,1.2-1.8.5-.5,1.1-.8,1.8-1.1.7-.2,1.4-.4,2.2-.4,1,0,1.9.2,2.7.7.7.5,1.3,1.1,1.6,2s.3,1.9.1,3.1l-1.9,8.3h-2.2l1.9-8.4c.3-1.2.2-2.1-.3-2.8-.5-.7-1.3-1-2.4-1-.8,0-1.6.2-2.3.6s-1.2.9-1.7,1.6-.8,1.6-1.1,2.7l-1.8,7.4h-2.2Z"/>
    <path d="m534,114.8l3-12.9c.1-.6.3-1.1.4-1.5.1-.4.3-.9.4-1.3-.4.3-.8.7-1.5,1-.6.3-1.3.6-2,.9s-1.3.4-1.9.6v-2.2c.7-.1,1.4-.4,2.2-.7s1.5-.7,2.2-1.1,1.2-.8,1.6-1.1h1.9l-4.2,18.3h-2.1Z"/>
    <path d="m541.1,114l.6-2.3,12.7-5.2-10.3-5.3.5-2.1,11.7,6.2-.6,2.6-14.6,6.1Z"/>
  </g>
  <g class="cls-12">
    <path d="m7.8,168.5c-1.4,0-2.7-.3-3.9-.9-1.2-.6-2.1-1.5-2.8-2.6-.7-1.2-1.1-2.6-1.1-4.3,0-1.4.2-2.7.6-4,.4-1.3,1-2.5,1.8-3.5.8-1.1,1.8-1.9,2.9-2.5s2.5-.9,4.1-.9c1.2,0,2.2.2,3.1.6.9.4,1.7.9,2.3,1.7.6.8,1.1,1.7,1.4,2.9l-2.3.8c-.3-1.4-.9-2.3-1.6-2.9-.8-.6-1.8-.9-3.1-.9-1.1,0-2.1.2-2.9.7s-1.6,1.2-2.1,2c-.6.8-1,1.7-1.3,2.8-.3,1-.4,2-.4,3.1,0,1.3.2,2.4.7,3.3.5.9,1.2,1.6,2,2.1s1.8.7,2.8.7c1.2,0,2.2-.3,2.9-.8.7-.5,1.3-1.2,1.8-2l2.1,1c-.8,1.2-1.7,2.1-2.8,2.8-1.1.5-2.5.8-4.2.8Z"/>
    <path d="m25.8,168.5c-1.4,0-2.6-.2-3.7-.6-1.1-.4-2-1-2.8-1.8s-1.4-1.8-1.8-3l2.2-1.1c.3,1.1.8,1.9,1.4,2.6.6.7,1.3,1.1,2.2,1.4.8.3,1.7.4,2.7.4.9,0,1.7-.2,2.3-.5s1.1-.7,1.4-1.2.5-1,.5-1.6c0-.7-.2-1.2-.7-1.6-.4-.4-1.1-.7-1.9-.9l-3-.8c-.9-.3-1.7-.6-2.4-1.1-.7-.4-1.2-1-1.5-1.6s-.5-1.3-.5-2c0-1,.3-1.9.8-2.8.5-.8,1.3-1.5,2.3-2s2.2-.7,3.5-.7c1.8,0,3.3.4,4.5,1.1,1.2.7,2.1,1.9,2.6,3.4l-2.2,1.1c-.2-1-.6-1.7-1.1-2.2s-1.1-.8-1.8-1c-.7-.2-1.4-.3-2.1-.3-.9,0-1.7.1-2.3.4-.6.3-1.1.6-1.4,1.1s-.5,1-.5,1.5c0,.6.2,1.2.7,1.7s1.1.9,1.9,1.1l3.3.9c1.3.4,2.3.9,3,1.6.6.7,1,1.6,1,2.6,0,1.1-.3,2.1-.9,3-.6.8-1.4,1.5-2.4,2-1,.7-2.1.9-3.3.9Z"/>
  </g>
  <g class="cls-12">
    <path d="m42.6,168.5c-1.4,0-2.6-.2-3.7-.6-1.1-.4-2-1-2.8-1.8s-1.4-1.8-1.8-3l2.2-1.1c.3,1.1.8,1.9,1.4,2.6.6.7,1.3,1.1,2.2,1.4.8.3,1.7.4,2.7.4.9,0,1.7-.2,2.3-.5s1.1-.7,1.4-1.2c.3-.5.5-1,.5-1.6,0-.7-.2-1.2-.7-1.6-.4-.4-1.1-.7-1.9-.9l-3-.8c-.9-.3-1.7-.6-2.4-1.1-.7-.4-1.2-1-1.5-1.6s-.5-1.3-.5-2c0-1,.3-1.9.8-2.8.5-.8,1.3-1.5,2.3-2s2.2-.7,3.5-.7c1.8,0,3.3.4,4.5,1.1,1.2.7,2.1,1.9,2.6,3.4l-2.2,1.1c-.2-1-.6-1.7-1.1-2.2s-1.1-.8-1.8-1-1.4-.3-2.1-.3c-.9,0-1.7.1-2.3.4-.6.3-1.1.6-1.4,1.1s-.5,1-.5,1.5c0,.6.2,1.2.7,1.7s1.1.9,1.9,1.1l3.3.9c1.3.4,2.3.9,3,1.6.6.7,1,1.6,1,2.6,0,1.1-.3,2.1-.9,3-.6.8-1.4,1.5-2.4,2-1.1.7-2.1.9-3.3.9Z"/>
  </g>
  <g>
    <path class="cls-1" d="m329.35,204.24s-2.16-1.56.43-3.64l6.05-5.41s1.73-1.82,3.56-.24l55.84,42.27v20.27s-.03,3.18-4.11,2.83l-61.77-56.09Z"/>
    <path class="cls-14" d="m343.73,217.31l-14.39,13.08s-1.48,1.1,0,3.06l6.68,6.08s1.59,1.7,3.93-.24l15.26-11.57-11.48-10.42Z"/>
    <path class="cls-13" d="m369,217.42l26.39-20.15-.17-20.16s-1.13-4.4-4.89-2.11l-35.12,31.97,13.79,10.46Z"/>
    <path class="cls-15" d="m391.11,260.36c1.53,1.57,3.39,1.05,3.39,1.05l20.57-10.14c2.63-1.8,2.26-4.02,2.26-4.02v-60.52c0-2.66-2.72-3.58-2.72-3.58l-17.83-8.59c-3.9-2.41-6.45.43-6.45.43,0,0,3.28-2.36,4.89,2.11v80.03c0,.55-.12,1.09-.35,1.58-.47.95-1.49,1.83-3.93,1.46l.17.19Z"/>
  </g>
</svg>